<svg xmlns="http://www.w3.org/2000/svg" viewBox="0 0 512 512" width="512" height="512">
  <defs>
    <linearGradient id="g" x1="0" y1="0" x2="1" y2="1">
      <stop offset="0" stop-color="#22d3ee"/>
      <stop offset="1" stop-color="#0891b2"/>
    </linearGradient>
  </defs>
  <rect width="512" height="512" rx="112" fill="url(#g)"/>
  <!-- หัวใจ -->
  <path fill="#ffffff" d="M256 408c-12 0-23-5-31-13L116 286c-37-37-37-97 0-134 35-35 92-37 129-5 37-32 94-30 129 5 37 37 37 97 0 134L287 395c-8 8-19 13-31 13z" opacity="0.96"/>
  <!-- เส้นชีพจร (ECG) -->
  <path fill="none" stroke="#0891b2" stroke-width="16" stroke-linecap="round" stroke-linejoin="round"
        d="M150 258h54l24-44 34 92 26-58 16 28h54"/>
</svg>
